<?xml version="1.0" encoding="UTF-8" standalone="no"?>
<svg
   version="1.0"
   width="1092.4482pt"
   height="1069.9999pt"
   viewBox="0 0 1092.4482 1069.9999"
   preserveAspectRatio="xMidYMid"
   id="svg17"
   xmlns="http://www.w3.org/2000/svg"
   xmlns:svg="http://www.w3.org/2000/svg">
  <defs
     id="defs17" />
  <metadata
     id="metadata1">
        Created by potrace 1.15, written by Peter Selinger 2001-2017
    </metadata>
  <path
     d="m 452.58342,38.999884 -32,38.999999 -54,-24.999999 c -30,-14 -76,-26 -101,-26 l -46,-2 2,69.999999 c 2,83.999997 -10,122.999997 -109,333.999997 -39.999993,84.99999 -82.999992,183.99999 -94.999992,221.99999 -21.9999991,65 -22.999999,68 -5,96 25,42 61.999999,68 115.999992,83 32,9 51,10 63,3 12,-8 18,-5 26,11 6,12 20,22 32,24 17,3 32,-12 72,-71 27,-41 64,-86 82,-101 36,-31 109,-70 116,-63 10,10 -38,100 -95,180 -33,45 -66,95 -75,112 -12,24 -37,120.00003 -37,140.00003 0,3 173,5 383.99999,5 h 382.99999 l 7,-46 c 22,-167.00003 -20,-436.00003 -90.99999,-579.00002 -88,-175 -216,-288 -347,-304 -47,-6 -50,-8 -63,-47.999997 -14,-41.999999 -61.99999,-92.99999806937 -87.99999,-92.99999806937 -8,0 -28,18.00000006937 -45,38.99999906937 z M 660.58341,234.99988 c 104,31 244,197 294,349.99999 30,91 47.99999,205 47.99999,304 0,72 -14.99999,105.99999 -41.99999,96 -21,-8 -28,-36 -28,-121 0,-94 -24,-231 -54,-304 -54,-131.99999 -164,-250.99999 -266,-286.99999 -47.99999,-17 -62.99999,-36 -37,-46 20,-9 31,-8 85,8 z m -290.99999,82 c 3,7 -13,31 -34,53 -29,32 -46,42 -73,43 -51,3 -53,-32 -6,-79 30,-30 41,-35 72,-32 21,2 39,8 41,15 z m -257,360.99999 c 0,25 -20.999993,50 -44.999993,54 -16,2 -19,-2 -17,-22 4,-41 61.999993,-71 61.999993,-32 z"
     id="path6" />
</svg>
