<?xml version="1.0" encoding="UTF-8" standalone="no"?>
<svg
   version="1.0"
   width="1179pt"
   height="1256.0955pt"
   viewBox="0 0 1179 1256.0955"
   preserveAspectRatio="xMidYMid"
   id="svg17"
   xmlns="http://www.w3.org/2000/svg"
   xmlns:svg="http://www.w3.org/2000/svg">
  <defs
     id="defs17" />
  <metadata
     id="metadata1">
        Created by potrace 1.15, written by Peter Selinger 2001-2017
    </metadata>
  <path
     d="m 511.99985,18.999903 c -48,29.999999 -60,98.999997 -28,159.999997 l 15,29 -46,22 c -25,12 -78,54 -119,94 -62,60.99999 -75,78.99999 -90,128.99999 -25,86 -6,161 68,265 30,42 31,44 18,90 -31,108.99999 -22,136.99999 51,147.99999 21,4 38,10 38,13 0,16 -98,31 -196,31 -121.99999,0 -146.999992,9.00002 -191.999991,71.00002 l -31.00000022001,42 38.99999922001,58 c 22,32 49.999999,65 61.000003,73 18.999999,13 23.999999,13 44.999999,-1 13.99999,-9 81.99999,-23 156.99999,-33 161,-22 203,-33 251,-65 l 38,-26 32,21 c 56.99999,35 116.99999,51 258.99999,70 95,12 143.99996,23 156.99996,35 14,13 23,14 39,6 19,-11 101,-121 101,-137 0,-15 -54,-77 -84,-95 -25,-15 -50,-19.00002 -132.99996,-19.00002 -101,0 -203,-16 -203,-32 0,-4 11,-8 25,-8 35,0 82,-26 89,-48 3,-9 -3,-47.99999 -14,-85.99999 l -19,-68 39,-57 c 97,-143 91,-257 -21,-369.99999 -42,-42 -125,-101 -161,-114 -15,-5 -14,-9 4,-46 26,-52 18,-102.999998 -22,-142.999997 C 654.99985,3.9999037 642.99985,-9.6274984e-5 596.99985,-9.6274984e-5 c -35,0 -64,6.999999874984 -85,18.999999274984 z m 111,66.999999 c 19,17.999998 20,27.999998 6,54.999998 -20,37 -80,18 -80,-26 0,-41.999998 44,-58.999998 74,-28.999998 z m -2,305.999988 c -3,37 -3,38 32,38 33.99999,0 35.99999,2 35.99999,34 0,32 -3,35 -32,38 -30.99999,3 -32.99999,6 -32.99999,41 0,35 -2,37 -32,37 -32,0 -33,-2 -33,-40 0,-37 -2,-40 -29,-40 -24,0 -29,-5 -33,-30 -5,-36 -3,-40 34,-40 26,0 28,-3 28,-41 0,-38.99999 1,-39.99999 33,-36.99999 31,3 32,5 29,39.99999 z m 144.99999,304 c 3,9 0,20 -8,25 -16,11 -333.99999,8 -343.99999,-3 -4,-4 -5,-14 -2,-23 10,-23 344.99999,-23 353.99999,1 z m -13,100 c 21,8 20,30 -1,39 -10,4 -75,9 -143.99999,12 -157,7 -238,-14 -181,-46 18,-11 299.99999,-15 325.99999,-5 z"
     id="path1" />
</svg>
