<?xml version="1.0" encoding="UTF-8" standalone="no"?>
<svg
   version="1.0"
   width="910.97546pt"
   height="1060.1311pt"
   viewBox="0 0 910.97546 1060.1311"
   preserveAspectRatio="xMidYMid"
   id="svg17"
   xmlns="http://www.w3.org/2000/svg"
   xmlns:svg="http://www.w3.org/2000/svg">
  <defs
     id="defs17" />
  <metadata
     id="metadata1">
        Created by potrace 1.15, written by Peter Selinger 2001-2017
    </metadata>
  <path
     d="M 67.464736,27.999794 C 43.464737,52.999793 40.464737,62.999793 40.464737,130.99979 v 75 l 75.000003,74 75,74 v 175.99999 175 l -95.000004,95 -94.9999986,95 v 66 c 0,106.00002 -32.9999994,99.00002 456.9999926,99.00002 486.99999,0 452.99999,8 452.99999,-101.00002 v -64 l -89.99999,-90 -90,-90 v -180 -180.99999 l 70,-69 69.99999,-69 v -86 c 0,-76.999997 -2,-88.999997 -23,-107.999996 C 828.46473,3.9997942 812.46473,-2.0575749e-4 754.46473,-2.0575749e-4 c -75,0 -94,8.99999985749 -94,46.99999875749 0,20 -5,23 -35,23 -30,0 -35,-3 -35,-23 0,-40.9999988 -17,-46.99999875749 -130,-46.99999875749 -113,0 -130,5.99999995749 -130,46.99999875749 0,20 -4.99999,23 -34.99999,23 -27,0 -35,-4 -35,-18 0,-35.999999 -32,-51.99999875749 -101,-51.99999875749 -58,0 -68.000004,2.99999995749 -92.000004,27.99999975749 z M 660.46473,374.99979 v 35 l -202,-2 -202.99999,-3 -3,-33 -3,-32 h 204.99999 206 z m 0,324.99999 v 30 h -205 -204.99999 v -30 -30 h 204.99999 205 z"
     id="path8" />
</svg>
