<?xml version="1.0" encoding="UTF-8" standalone="no"?>
<svg
   version="1.0"
   width="1258.2529pt"
   height="1165.7245pt"
   viewBox="0 0 1258.2529 1165.7245"
   preserveAspectRatio="xMidYMid"
   id="svg17"
   xmlns="http://www.w3.org/2000/svg"
   xmlns:svg="http://www.w3.org/2000/svg">
  <defs
     id="defs17" />
  <metadata
     id="metadata1">
        Created by potrace 1.15, written by Peter Selinger 2001-2017
    </metadata>
  <path
     d="m 566.79755,18.724478 c -35,27 -41,67.999999 -20,135.000002 23,73 22,173 -1,291.99999 l -17,90 -23,-50 c -48,-106 -73,-197.99999 -71,-259.99999 1,-33 2,-72 2,-87 2,-65.000003 -72,-111.000002 -136,-84.000003 -42,17 -57,38 -63,84.000003 -4,33 -1,44 26,74 45,51 51,77 51,205.99999 l -1,117 -39,-43 c -62,-69 -83.99999,-122.99999 -76,-189.99999 5,-47 3,-63 -13.99999,-90 -34,-55 -86.999999,-66 -139.999998,-30 -61.999999,42 -58.999999,125 5,173 27.999999,21.99999 32.999999,32.99999 38.999999,84.99999 4,32 19.999999,109 34.999999,169 25,97 35,118 78.99999,173 27,35 57,78 66,95.99999 16,31 16,35 -9,103 -43,120.00004 -35,134.00004 90,166.00004 96,24 453.99999,24 563.99999,0 117.99996,-26 132.99996,-55 85,-169.00004 -15,-36 -23,-70 -20,-84 3,-12 33.99996,-56.99999 66.99996,-99.99999 59,-74 62,-81 90,-196 15,-66 31,-143 34,-172 6,-43 12,-54 39,-70.99999 69,-45 65,-147 -7,-181 -44,-21 -80,-13 -119,27 -29,29 -30,32 -23,93 6,56 3,70 -18,111.99999 -14,27 -41,67 -60.99996,89 l -35,40 -3,-60 c -7,-154.99999 6,-217.99999 50,-258.99999 74.99996,-67 -7,-198.000002 -103,-166.000003 -60,20 -70,41 -67,141.000003 2,77 -1,101 -27,179 -17,49.99999 -39,106.99999 -49,126.99999 l -19,36 -16,-90 c -20.99999,-112.99999 -21.99999,-226.99999 -2,-282.99999 22,-62.000004 19,-103.000003 -10,-134.000002 -28.99999,-31.9999994 -95.99999,-35.9999993 -132.99999,-8 z m 96,43.999999 c 17,17 15,53.000003 -3,68.000003 -38,31 -96,-27 -65,-65.000003 15,-18 51,-19.999999 68,-3 z m -286,62.000003 c 23,35 0,68 -43,64 -29,-3 -34,-7 -37,-33 -3,-19 2,-33 14,-42 19,-14.000004 54,-8 66,11 z m 571.99999,-11 c 12,9 17,23 14,42 -2,24 -8,31 -31,33 -54,6 -77,-43 -35,-72 27,-19.000004 30,-19.000004 52,-3 z m -815.99998,119 c 17,17 15,53 -3,68 -20,17 -61.999998,5 -69.999998,-20 -14,-44 40.999998,-80 72.999998,-48 z m 1055.99994,4 c 19,18 20,28 6,55 -20,37 -80,18 -80,-26 0,-42 44,-59 74,-29 z M 909.79754,721.72447 c 28,10 41,21 43,35 l 3,22 -324.99999,-1 c -310,-1 -326,-2 -326,-19 0,-42 109,-58 365,-54 134.99999,3 212.99999,8 239.99999,17 z m -41,217.99999 c 21,5 46,17 55,25 13,14 13,18 1,30 -13,12.00004 -40,13.00004 -160,7.00004 -79.99999,-5.00004 -204.99999,-5.00004 -278.99999,0 -131,9 -161,4 -161,-22.00004 0,-16 57,-38 121,-48 76,-12 366.99999,-6 422.99999,8 z"
     id="path5" />
</svg>
