<?xml version="1.0" encoding="UTF-8" standalone="no"?>
<svg
   version="1.0"
   width="786pt"
   height="1069.1733pt"
   viewBox="0 0 786 1069.1733"
   preserveAspectRatio="xMidYMid"
   id="svg17"
   xmlns="http://www.w3.org/2000/svg"
   xmlns:svg="http://www.w3.org/2000/svg">
  <defs
     id="defs17" />
  <metadata
     id="metadata1">
        Created by potrace 1.15, written by Peter Selinger 2001-2017
    </metadata>
  <path
     d="m 310.99975,20.173247 c -68,35 -91,100.999993 -64,177.999993 9,24 15,45 14,46 -2,1 -20,11 -40,24 -67,40 -96.99999,146 -64,224 7,18 28,45 46,61 26,22 30,29 19,36 -50,27.99999 -121.999988,91.99999 -147.999992,129.99999 -46.999999,70 -62.999999,125 -67.999998,242 L -2.3994001e-4,1069.1733 H 392.99975 785.99974 l -6,-108.00007 c -4,-73 -12,-125 -27,-164 -25,-67 -93,-147 -155.99999,-184 -24,-14 -44,-27.99999 -44,-30.99999 0,-3 12,-14 26,-26 31,-24 62.99999,-90 63.99999,-131 0,-53 -22.99999,-106 -59.99999,-140 -21,-18 -43,-35 -50,-38 -11,-3 -11,-11 -2,-38 7,-18 12,-52 12,-76 0,-103.999993 -129,-167.999991 -232,-112.999993 z"
     id="path7" />
</svg>
