<?xml version="1.0" encoding="UTF-8" standalone="no"?>
<svg
   version="1.0"
   width="783pt"
   height="1067.9012pt"
   viewBox="0 0 783 1067.9012"
   preserveAspectRatio="xMidYMid"
   id="svg17"
   xmlns="http://www.w3.org/2000/svg"
   xmlns:svg="http://www.w3.org/2000/svg">
  <defs
     id="defs17" />
  <metadata
     id="metadata1">
        Created by potrace 1.15, written by Peter Selinger 2001-2017
    </metadata>
  <path
     d="m 335.99975,7.9011255 c -77,22.9999995 -116,103.0000045 -91,185.9999945 13,43 13,49 -1,57 -39,22 -84,71 -94.99999,104 -24,72 7,175 62.99999,207 l 31,19 -34,17 c -51,27 -125.999993,96.99999 -153.999992,143.99999 -32.999999,56 -54.99999839999,155 -54.99999839999,248 v 77.99999 H 390.99975 782.99974 l -6,-102.99999 c -3,-56 -13,-125 -22,-153 -24,-71 -79,-139.99999 -149.99999,-187.99999 l -61,-41 42,-40 c 47,-45 60,-87 49,-160 -6,-45 -51,-104 -98,-130 -17,-9 -17,-13 -2,-57 42,-120.999996 -69,-225.999994 -199,-187.9999945 z m 85,59.9999985 c 18,0 49,40.000006 49,64.000006 0,13 -9,43 -19,65.99999 -11,24 -17,49 -14,56 2,7 22,24 44,39 52,34 79,79 79,133 0,45 -17,68 -88,125 -29,23 -17,47 46,90 129,88.99999 180.99999,167.99999 189.99999,286.99999 l 5,70 H 389.99975 66.999758 l 5,-70 c 9,-121 54.000002,-187 197.999992,-292.99999 58,-43 62,-67 15,-104 -92,-71 -86,-168 14,-239 44,-32 51,-59 26,-104 -37,-64.99999 8,-140.999995 73,-123.999996 8,2 18,4 23,4 z"
     id="path17" />
</svg>
