<?xml version="1.0" encoding="UTF-8" standalone="no"?>
<svg
   version="1.0"
   width="910.46021pt"
   height="1070.1003pt"
   viewBox="0 0 910.4602 1070.1003"
   preserveAspectRatio="xMidYMid"
   id="svg17"
   xmlns="http://www.w3.org/2000/svg"
   xmlns:svg="http://www.w3.org/2000/svg">
  <defs
     id="defs17" />
  <metadata
     id="metadata1">
        Created by potrace 1.15, written by Peter Selinger 2001-2017
    </metadata>
  <path
     d="M 46.999886,28.000014 C 21.999887,54.000013 19.999887,63.000013 19.999887,137.00001 v 81 l 78.999998,69 79.999995,68 V 540 l 1,185 -89.999995,90 -89.99999802256,90 v 70 c 0,42 4.99999992256,76 12.00000002256,83 9,9 120.000003,12 437.999993,12 492.99999,0 459.99999,7 459.99999,-96 v -59 l -95,-97 -95,-97 V 542 362.00001 l 80,-68 80,-69 v -86 c 0,-79.999997 -2,-86.999997 -28,-111.999996 -25,-23.9999997 -35,-26.999999610328 -103,-26.999999610328 -84,0 -121.99999,19.999999610328 -111.99999,59.999998610328 5,17 1,20 -26,20 -26,0 -31,-4 -31,-23 0,-44.999999 -28,-56.999998610328 -132,-56.999998610328 -103,0 -128,11.999999610328 -128,57.999998610328 0,17 -6,22 -25,22 -20,0 -25,-5 -25,-23 0,-42.999999 -29,-56.999998610328 -116,-56.999998610328 C 78.999885,1.4389672e-5 71.999886,2.0000144 46.999886,28.000014 Z M 209.99988,103.00001 c 0,36 19,47 81,47 76,0 89,-6 89,-41 V 80.000013 h 70 c 66,0 70,1 70,22.999997 0,37 19,47 92,47 57.99999,0 68.99999,-3 77.99999,-21 7,-11 9,-27 6,-34.999997 -4,-11 7,-14 53,-14 67,0 71,5 71,77.999997 0,45 -2,49 -60,94 l -59,48 h -247.99999 -248 l -59.99999,-48 c -59.000005,-48 -60.000005,-50 -60.000005,-98 1,-27 4,-54.999997 9,-61.999997 4,-7 29.000005,-12 61.999995,-12 50,0 54,2 54,22.999997 z M 659.99987,530 v 160 l -205.99999,-2 -205,-3 -2,-158 -2,-156.99999 h 208 206.99999 z m 67,272 c 29,29 53,55 53,58 0,3 -146.99999,4 -326.99999,2 l -326.99999,-3 53.99999,-54 54,-55 h 220 219.99999 z m 123,163 v 35 H 454.99988 59.999886 V 965 930 H 454.99988 849.99987 Z"
     id="path13" />
</svg>
