<?xml version="1.0" encoding="UTF-8" standalone="no"?>
<svg
   version="1.0"
   width="1097.8263pt"
   height="1198.8121pt"
   viewBox="0 0 1097.8263 1198.8121"
   preserveAspectRatio="xMidYMid"
   id="svg17"
   xmlns="http://www.w3.org/2000/svg"
   xmlns:svg="http://www.w3.org/2000/svg">
  <defs
     id="defs17" />
  <metadata
     id="metadata1">
        Created by potrace 1.15, written by Peter Selinger 2001-2017
    </metadata>
  <path
     d="m 512.82636,34.000045 c -12,28 -21,35 -47,38 -29,3 -33,7 -36,34.999995 -3,29 1,34 37,53 47,23 56,61 21,80 -40,21 -80,90 -80,137 0,39.99999 -11,54.99999 -24,33.99999 -15,-22.99999 -99,-50.99999 -155,-50.99999 -122,0 -206.999995,66.99999 -224.9999945,175.99999 -11.9999998,67 1.9999999,108 73.9999985,219 69.999996,108 83.999996,145 98.999996,271.00007 5,39 14,80 20,91 15,30 85,59 173,73 105,17 362.99999,8 436.99999,-15 82,-25 106,-55 114,-140 11,-109.00008 32,-171.00007 85.99995,-253.00007 67,-103 91,-158 91,-214 0,-60 -13,-95 -53,-136 -76.99995,-80.99999 -186.99995,-98.99999 -286.99995,-45.99999 -30,16 -58,29.99999 -62,31.99999 -5,2 -8,-21.99999 -8,-52.99999 0,-53 -2,-58 -45,-99 -54.99999,-54 -56.99999,-77 -10,-106 29,-18 35,-28 35,-56 0,-31.999995 -2,-33.999995 -34,-33.999995 -30,0 -36,-4 -45.99999,-35 -9,-26.9999987 -17,-34.999998596896 -36,-34.999998596896 -19,0 -29,7.999999896896 -39,33.999998596896 z m 69,266.999995 c 28.99999,13 45.99999,55 45.99999,109.99999 0,38 -54.99999,159 -74.99999,166 -6,2 -25,-23 -43,-56 -49,-90 -44,-198.99999 11,-220.99999 30,-12 32,-12 61,1 z m -270,143.99999 c 99,47 192,176 198,275 l 3,45 -55,11 c -30,6 -103,14 -162,18 l -108,7 -46,-63 c -77.999995,-106 -91.999995,-164 -53.999996,-237 16.999996,-34 37.999996,-50 99.999996,-75 24,-9 84,0 124,19 z m 631.99999,-6 c 49,22 80.99995,64 89.99995,118 8,49 -10,94 -71.99995,178 l -47,64 -61,-4 c -34,-3 -95,-7 -137,-10 -42,-2 -89,-9 -104,-15 -25.99999,-10 -26.99999,-14 -21.99999,-56 6.99999,-65 59.99999,-167 109.99999,-210 52,-45 132,-84 172,-84 17,0 48,9 71,19 z m -218,416 c 79,7 146,16 149,18 5,5 -13,136.00007 -19,142.00007 -2,2 -34,-4 -73,-13 -123,-28.00008 -402.99999,-21.00008 -519.99999,13 -18,6 -21,-1 -32,-67.00008 -6,-40 -10,-73.99999 -9,-75.99999 2,-1 57,-7 122,-13 65,-6 137,-15 159,-19 22,-5 49,-6 60,-4 11,3 84.99999,11 162.99999,19 z m 35,216.00007 c 36,9 49,31 27,44 -23,14 -264.99999,24 -358.99999,15 -133,-13 -158,-25 -109,-51 46,-25 350.99999,-30 440.99999,-8 z"
     id="path11" />
</svg>
