<?xml version="1.0" encoding="UTF-8" standalone="no"?>
<svg
   version="1.0"
   width="1258.8409pt"
   height="1170.0015pt"
   viewBox="0 0 1258.8409 1170.0015"
   preserveAspectRatio="xMidYMid"
   id="svg17"
   xmlns="http://www.w3.org/2000/svg"
   xmlns:svg="http://www.w3.org/2000/svg">
  <defs
     id="defs17" />
  <metadata
     id="metadata1">
        Created by potrace 1.15, written by Peter Selinger 2001-2017
    </metadata>
  <path
     d="m 558.99986,30.551434 c -33,33.999999 -36,59.999998 -13,121.999996 21,57 21,198 -1,297.99999 -8,41 -17,76 -19,78 -5,5 -65,-150.99999 -81,-213.99999 -11,-41 -14,-79 -9,-129 6,-65 4,-72 -20,-100.999997 -63,-74.9999993 -175.99999,-36 -175.99999,61.999997 0,35 6,51 31,79 16,19 34,50 40,68 10,37 12,143.99999 3,200.99999 l -7,38 -28,-33 c -66,-75 -83,-116.99999 -81,-190.99999 2,-80 -14,-119 -57,-137 -64.999996,-26 -140.99999397337,26 -140.99999397337,97 0,28 7.99999987337,44 38.99999897337,75 31.999999,31 41.999999,51 50.999999,95.99999 6,31 22.999996,110 36.999996,176 24,107 31,122 68,165 91,102 97,121 66,192.99999 -28,64.99999 -35,118.99999 -18,141.99999 21,29 122.99999,46 321.99999,53 190,6 360.99999,-7 421.99999,-32 33.99995,-14 37.99995,-25 32.99995,-90 -1,-16 -11,-46 -20.99995,-66.99999 -35,-69 -28,-88.99999 66.99995,-205.99999 43,-52 65,-124 99,-316 11,-62.99999 17,-75.99999 55,-113.99999 39,-39 42,-45 37,-83 -10,-77 -87,-121 -145,-83 -45,29 -52,45 -51,120 2,79 -15,120.99999 -73.99995,191.99999 -33,39 -35,40 -41,19 -10,-38 -7,-181.99999 5,-217.99999 7,-19 25,-52 40,-73 37.99995,-52 37.99995,-96 1,-136.999997 -24,-26 -36,-32 -72,-32 -37,0 -48,5 -73,33 -27.99999,31.999997 -28.99999,35.999997 -22.99999,99.999997 7,78 -15,179 -62,285.99999 -34,76 -33,76 -57,-59.99999 -20,-116 -19,-147 6,-241 17,-65 18,-82.999997 8,-106.999997 -27,-64.999999 -109,-79.999998 -160,-28.999999 z m 109,56.999998 c 4,37.999998 -18,58.999998 -53,49.999998 -20,-5 -25,-12 -25,-39.999998 0,-40.999999 7,-47.999999 45,-43.999999 25,3 30,8 33,33.999999 z m -304,26.999998 c 12,9 17,23 14,42 -2,25 -8,31 -32.99999,33 -19,3 -33,-2 -42,-14 -17,-24 -17,-30 7,-54 24,-23.999998 30,-23.999998 53.99999,-7 z m 579.99999,0 c 12,9 17,23 14,42 -3,27 -7,30 -37,30 -44,0 -61,-35 -31,-65 23,-22.999998 30,-23.999998 54,-7 z m -815.99998,119 c 20,20 15,66 -8,73 -36.999996,12 -59.999995,-3 -59.999995,-40 0,-18 6,-36 12.999999,-38 22,-9 42.999996,-7 54.999996,5 z m 1059.99993,0 c 27,27 7,78 -29,78 -21,0 -49,-26 -49,-45 0,-35 53,-58 78,-33 z m -787.99994,145 c 0,24 60,139.99999 97,187.99999 l 36,48 18,-24 c 21,-27 69,-168 69,-202.99999 0,-54 15,-30 36,56.99999 22,92 58,172 74,162 19,-12 83,-118 115,-190 l 34.99999,-79.99999 v 65 c 0,67.99999 23,225.99999 34,236.99999 3,3 47,-35 96.99995,-86 50,-50 88,-83 85,-74 -3,10 -13,52 -22,93 -15,71 -38,130 -50,130 -2,0 -23,-10 -45.99995,-21 -149.99999,-77 -515.99999,-78 -684.99998,-3 -41,18 -59,21 -69,13 -7,-5 -22,-52 -34,-102 -11,-51 -23,-99 -26,-109 -3,-9 36,25 86,75 50,49 93,87 95.99999,84 11,-11 34,-169 34,-236.99999 0,-46 3,-61 10,-50 5,8 10,21 10,27 z m 320,312.99999 c 63,6 132.99999,15 154.99999,21 38,10 75,34 75,49 0,3 -143.99999,6 -319.99999,7 -176,0 -319.99999,-3 -319.99999,-8 0,-13 42.99999,-39 84.99999,-51 22,-6 76,-14 120,-18 44,-4 82,-8 85,-8 3,-1 57,3 120,8 z m 131.99999,147 c 67,6 68,6 60,32 -4,14 -7,39.99999 -6,55.99999 v 31 l -50,-7 c -27.99999,-4 -129.99999,-8 -225.99999,-8 -96,0 -198,4 -226,8 l -50,7 v -31 c 1,-16 -3,-41.99999 -7,-56.99999 -6.99999,-26 -5.99999,-27 40,-31 86,-6 397,-7 464.99999,0 z m 35,182.99998 c 40,14 49,36 21,51 -52,28 -428.99999,33 -529.99999,8 -38.99999,-10 -51.99999,-39 -26,-55 38,-24 471,-26.99999 534.99999,-4 z"
     id="path12" />
</svg>
